<?xml version="1.0" encoding="UTF-8" standalone="no"?>
<!DOCTYPE svg PUBLIC "-//W3C//DTD SVG 1.1//EN" "http://www.w3.org/Graphics/SVG/1.1/DTD/svg11.dtd">
<svg width="100%" height="100%" viewBox="0 0 28 28" version="1.1" xmlns="http://www.w3.org/2000/svg" xmlns:xlink="http://www.w3.org/1999/xlink" xml:space="preserve" xmlns:serif="http://www.serif.com/" style="fill-rule:evenodd;clip-rule:evenodd;stroke-linejoin:round;stroke-miterlimit:2;">
    <g transform="matrix(0.0197475,0,0,0.0197475,-20.6359,-4.88179)">
        <path d="M1517.72,287.582L1517.72,547.007C1376.55,628.744 1281.5,781.44 1281.5,956.16C1281.5,1216.91 1493.19,1428.6 1753.94,1428.6C2014.68,1428.6 2226.38,1216.91 2226.38,956.16C2226.38,781.44 2131.33,628.744 1990.16,547.007L1990.16,287.582C2265.45,384.967 2462.89,647.689 2462.89,956.16C2462.89,1347.44 2145.22,1665.11 1753.94,1665.11C1362.66,1665.11 1044.99,1347.44 1044.99,956.16C1044.99,647.689 1242.42,384.967 1517.72,287.582Z" style="fill:rgb(255,255,255);"/>
    </g>
    <g transform="matrix(0.0197475,0,0,0.0197475,-20.6359,-4.88179)">
        <path d="M1635.83,257.023C1674.24,250.57 1713.7,247.211 1753.94,247.211C1794.17,247.211 1833.63,250.57 1872.05,257.023L1872.05,498.629C1834.29,488.897 1794.71,483.719 1753.94,483.719C1713.16,483.719 1673.58,488.897 1635.83,498.629L1635.83,257.023Z" style="fill:rgb(255,255,255);"/>
    </g>
    <g transform="matrix(0.0197475,0,0,0.0197475,-20.6359,-4.88179)">
        <path d="M1635.83,1172.72L1635.83,622.024C1672.78,608.947 1712.53,601.83 1753.94,601.83C1795.34,601.83 1835.1,608.947 1872.05,622.024L1872.05,1172.72C1835.1,1185.8 1795.34,1192.91 1753.94,1192.91C1712.53,1192.91 1672.78,1185.8 1635.83,1172.72Z" style="fill:rgb(255,255,255);"/>
    </g>
</svg>
