<?xml version="1.0" encoding="UTF-8" standalone="no"?>
<svg
   xmlns:dc="http://purl.org/dc/elements/1.1/"
   xmlns:cc="http://creativecommons.org/ns#"
   xmlns:rdf="http://www.w3.org/1999/02/22-rdf-syntax-ns#"
   xmlns:svg="http://www.w3.org/2000/svg"
   xmlns="http://www.w3.org/2000/svg"
   xmlns:sodipodi="http://sodipodi.sourceforge.net/DTD/sodipodi-0.dtd"
   xmlns:inkscape="http://www.inkscape.org/namespaces/inkscape"
   width="50"
   height="40"
   viewBox="0 0 1024 1024"
   version="1.1"
   xml:space="preserve"
   style="clip-rule:evenodd;fill-rule:evenodd;stroke-linejoin:round;stroke-miterlimit:1.41420996"
   id="svg14"
   sodipodi:docname="imt-icon.svg"
   inkscape:version="0.92.3 (2405546, 2018-03-11)"><metadata
   id="metadata20"><rdf:RDF><cc:Work
       rdf:about=""><dc:format>image/svg+xml</dc:format><dc:type
         rdf:resource="http://purl.org/dc/dcmitype/StillImage" /><dc:title></dc:title></cc:Work></rdf:RDF></metadata><defs
   id="defs18" /><sodipodi:namedview
   pagecolor="#ffffff"
   bordercolor="#666666"
   borderopacity="1"
   objecttolerance="10"
   gridtolerance="10"
   guidetolerance="10"
   inkscape:pageopacity="0"
   inkscape:pageshadow="2"
   inkscape:window-width="1920"
   inkscape:window-height="1147"
   id="namedview16"
   showgrid="false"
   inkscape:zoom="20.85965"
   inkscape:cx="34.087809"
   inkscape:cy="22.536762"
   inkscape:window-x="1358"
   inkscape:window-y="-8"
   inkscape:window-maximized="1"
   inkscape:current-layer="svg14"
   units="px"
   showguides="true"
   inkscape:guide-bbox="true"><sodipodi:guide
     position="-60.871587,510.53589"
     orientation="0,1"
     id="guide3845"
     inkscape:locked="false" /><sodipodi:guide
     position="511.51769,1191.6595"
     orientation="1,0"
     id="guide3847"
     inkscape:locked="false" /></sodipodi:namedview>
    
    
    
<g
   style="clip-rule:evenodd;fill-rule:evenodd;stroke-linejoin:round;stroke-miterlimit:1.41420996"
   id="g18"
   transform="matrix(0.95845683,0,0,0.95845683,19.437379,36.23364)"><g
     id="g4"
     transform="matrix(0.52744827,0,0,0.52744827,-413.10992,7.6751287)"><path
       inkscape:connector-curvature="0"
       id="path2"
       style="fill:#cccccc"
       d="M 1517.72,287.582 V 547.007 C 1376.55,628.744 1281.5,781.44 1281.5,956.16 c 0,260.75 211.69,472.44 472.44,472.44 260.74,0 472.44,-211.69 472.44,-472.44 0,-174.72 -95.05,-327.416 -236.22,-409.153 V 287.582 c 275.29,97.385 472.73,360.107 472.73,668.578 0,391.28 -317.67,708.95 -708.95,708.95 -391.28,0 -708.95,-317.67 -708.95,-708.95 0,-308.471 197.43,-571.193 472.73,-668.578 z" /></g><g
     id="g8"
     transform="matrix(0.52744827,0,0,0.52744827,-413.10992,7.6751287)"><path
       inkscape:connector-curvature="0"
       id="path6"
       style="fill:#2f8cbb"
       d="m 1635.83,257.023 c 38.41,-6.453 77.87,-9.812 118.11,-9.812 40.23,0 79.69,3.359 118.11,9.812 v 241.606 c -37.76,-9.732 -77.34,-14.91 -118.11,-14.91 -40.78,0 -80.36,5.178 -118.11,14.91 z" /></g><g
     id="g12"
     transform="matrix(0.52744827,0,0,0.52744827,-413.10992,7.6751287)"><path
       inkscape:connector-curvature="0"
       id="path10"
       style="fill:#2f8cbb"
       d="M 1635.83,1172.72 V 622.024 c 36.95,-13.077 76.7,-20.194 118.11,-20.194 41.4,0 81.16,7.117 118.11,20.194 v 550.696 c -36.95,13.08 -76.71,20.19 -118.11,20.19 -41.41,0 -81.16,-7.11 -118.11,-20.19 z" /></g></g></svg>